<?xml version="1.0" encoding="UTF-8" standalone="no"?>
<!-- Created with Inkscape (http://www.inkscape.org/) -->

<svg
   version="1.1"
   id="svg2"
   width="1272.5267"
   height="1067.6547"
   viewBox="0 0 1272.5267 1067.6547"
   xmlns="http://www.w3.org/2000/svg"
   xmlns:svg="http://www.w3.org/2000/svg">
  <defs
     id="defs6">
    <clipPath
       clipPathUnits="userSpaceOnUse"
       id="clipPath18">
      <path
         d="M 0,800.741 H 954.396 V 0 H 0 Z"
         id="path16" />
    </clipPath>
  </defs>
  <g
     id="g8"
     transform="matrix(1.3333333,0,0,-1.3333333,0,1067.6547)">
    <path
       d="m 0.105,1.695 h 954.29 V 799.96 H 0.105 Z"
       style="fill:#070707;fill-opacity:1;fill-rule:nonzero;stroke:none"
       id="path10" />
    <g
       id="g12">
      <g
         id="g14"
         clip-path="url(#clipPath18)">
        <g
           id="g20"
           transform="translate(346.2452,265.2915)">
          <path
             d="m 0,0 c 4.286,-0.001 8.572,-0.015 12.857,0.013 0.734,0.004 1.122,-0.072 1.115,-1.009 -0.007,-0.917 -0.27,-1.195 -1.139,-1.137 C 11.706,-2.057 10.589,-2.15 9.51,-2.609 7.874,-3.305 6.856,-4.517 6.421,-6.272 5.905,-8.354 5.831,-10.49 5.82,-12.615 5.781,-19.933 5.786,-27.252 5.83,-34.571 c 0.006,-0.946 -0.291,-1.414 -1.088,-1.835 -6.855,-3.618 -14.082,-5.68 -21.809,-5.914 -6.194,-0.188 -12.306,0.258 -18.181,2.382 -12.499,4.521 -20.267,13.595 -23.288,26.815 -4.017,17.579 4.992,37.061 20.655,45.094 4.746,2.433 9.849,3.333 15.12,3.586 6.163,0.296 11.951,-1.178 17.622,-3.443 1.049,-0.418 2.128,-0.773 3.218,-1.06 1.688,-0.444 2.704,0.169 3.195,1.865 0.144,0.496 0.248,1.02 0.267,1.535 0.03,0.826 0.297,1.199 1.185,1.213 0.942,0.015 0.949,-0.535 1.002,-1.208 C 4.158,28.973 4.6,23.487 5.038,18.002 5.156,16.52 5.307,15.04 5.365,13.555 5.384,13.063 5.971,12.301 5.029,12.083 4.162,11.881 3.543,12.079 3.234,13.176 2.668,15.18 1.793,17.073 0.845,18.924 c -4.074,7.955 -10.48,12.174 -19.162,12.721 -6.376,0.402 -12.329,-0.876 -17.462,-5.027 -4.399,-3.557 -7.305,-8.274 -8.985,-13.678 -4.249,-13.664 -3.393,-26.922 4.117,-39.22 5.25,-8.598 13.113,-12.678 22.99,-12.296 4.373,0.17 8.483,1.519 12.353,3.644 0.555,0.305 0.766,0.656 0.764,1.307 -0.022,7.479 -0.007,14.959 -0.031,22.438 -0.003,1.122 -0.106,2.251 -0.253,3.364 -0.451,3.43 -2.505,5.299 -6.113,5.613 -0.621,0.054 -1.245,0.106 -1.866,0.086 -0.781,-0.026 -1.287,0.012 -1.298,1.116 -0.011,1.224 0.688,1.007 1.36,1.007 C -8.494,0.002 -4.247,0.001 0,0"
             style="fill:#ffffff;fill-opacity:1;fill-rule:nonzero;stroke:none"
             id="path22" />
        </g>
        <g
           id="g24"
           transform="translate(596.7407,224.674)">
          <path
             d="m 0,0 c -7.479,-0.001 -14.957,-0.006 -22.436,0.013 -0.368,0.001 -0.957,-0.277 -1.066,0.372 -0.097,0.581 -0.147,1.202 0.816,1.139 1.318,-0.086 2.636,-0.054 3.917,0.427 1.539,0.578 2.412,1.666 2.697,3.318 0.151,0.877 0.197,1.756 0.197,2.64 0.002,13.588 0.002,27.177 0,40.765 0,0.362 -0.008,0.723 -0.021,1.085 -0.094,2.544 -1.378,4.083 -3.822,4.581 -0.958,0.195 -1.926,0.29 -2.903,0.241 -0.516,-0.026 -0.882,0.02 -0.912,0.733 -0.032,0.744 0.352,0.753 0.864,0.75 1.675,-0.011 3.35,-0.004 5.024,-0.004 12.776,0 25.553,-0.014 38.328,0.026 1.07,0.003 1.356,-0.283 1.342,-1.386 -0.062,-4.662 -0.018,-9.326 -0.042,-13.989 -0.002,-0.466 0.343,-1.178 -0.613,-1.25 -0.78,-0.058 -0.963,0.321 -1.105,1.017 -0.344,1.685 -0.805,3.34 -1.475,4.931 -2.017,4.794 -5.859,6.763 -10.606,7.235 -3.297,0.328 -6.613,0.239 -9.923,0.268 -0.814,0.007 -1.061,-0.243 -1.058,-1.091 0.03,-6.915 0.03,-13.83 -10e-4,-20.744 -0.003,-0.841 0.228,-1.084 1.048,-1.093 4.712,-0.05 7.643,2.072 9.213,6.762 0.599,1.789 0.994,3.63 1.189,5.51 0.066,0.639 0.15,1.024 0.928,1.019 0.929,-0.007 0.726,-0.628 0.726,-1.147 0.006,-9.085 0.006,-18.171 0.001,-27.256 C 10.306,14.386 10.489,13.814 9.63,13.811 8.916,13.809 8.728,14.067 8.647,14.77 8.312,17.704 7.555,20.495 6.005,23.038 4.075,26.206 1.097,26.85 -2.188,26.862 -2.971,26.864 -2.773,26.265 -2.775,25.831 -2.787,22.937 -2.81,20.042 -2.772,17.148 -2.727,13.613 -2.959,10.073 -2.586,6.545 -2.4,4.787 -1.375,3.429 0.301,3.261 5.134,2.776 9.958,2.757 14.549,4.743 c 4.613,1.995 7.349,5.775 9.077,10.46 0.221,0.599 0.459,1.201 0.59,1.823 0.166,0.786 0.69,0.761 1.244,0.694 0.803,-0.096 0.335,-0.668 0.29,-1.009 C 25.061,11.501 24.319,6.299 23.67,1.084 23.556,0.173 23.247,-0.018 22.436,-0.015 14.957,0.012 7.479,0.001 0,0"
             style="fill:#ffffff;fill-opacity:1;fill-rule:nonzero;stroke:none"
             id="path26" />
        </g>
        <g
           id="g28"
           transform="translate(524.6433,269.7492)">
          <path
             d="m 0,0 c -0.297,-0.574 -0.19,-1.018 -0.19,-1.441 -0.007,-11.46 -0.008,-22.92 0.001,-34.38 0.001,-0.722 0.014,-1.456 0.139,-2.162 0.617,-3.467 3.012,-5.522 6.454,-5.587 0.311,-0.006 0.625,-0.026 0.934,0.004 0.553,0.052 0.744,-0.17 0.743,-0.752 -10e-4,-0.593 -0.229,-0.762 -0.761,-0.761 -5.922,0.009 -11.843,0.01 -17.765,-10e-4 -0.553,-0.001 -0.74,0.22 -0.75,0.785 -0.011,0.608 0.248,0.755 0.772,0.735 0.425,-0.017 0.859,0.012 1.28,0.081 4.15,0.68 5.922,2.658 5.941,7.085 0.057,13.309 0.02,26.619 0.014,39.929 0,0.275 0.022,0.623 -0.121,0.814 -1.706,2.288 -3.267,4.795 -6.49,4.988 -0.232,0.014 -0.461,0.105 -0.692,0.104 -0.574,-0.002 -0.697,0.32 -0.708,0.847 -0.013,0.635 0.318,0.702 0.808,0.701 5.961,-0.008 11.922,-0.015 17.883,0.01 0.612,0.002 0.901,-0.343 1.22,-0.757 5.86,-7.617 11.724,-15.231 17.586,-22.846 2.544,-3.304 5.084,-6.611 7.63,-9.914 0.239,-0.309 0.508,-0.592 0.779,-0.906 0.374,0.369 0.211,0.793 0.211,1.161 0.011,7.72 0.004,15.441 0.006,23.161 0,1.211 -0.11,2.412 -0.358,3.591 -0.591,2.809 -2.226,4.366 -4.991,4.794 -0.616,0.095 -1.237,0.196 -1.857,0.207 -0.62,0.011 -0.669,0.361 -0.665,0.86 0.003,0.566 0.312,0.638 0.757,0.638 5.493,-0.007 10.986,-0.008 16.479,-10e-4 0.45,10e-4 0.743,-0.068 0.723,-0.647 C 44.996,9.867 45.008,9.453 44.421,9.368 43.922,9.296 43.428,9.181 42.928,9.106 39.514,8.597 38.373,6.787 38.001,3.28 37.913,2.444 37.911,1.595 37.911,0.751 c -0.006,-15.32 -0.002,-30.64 -0.016,-45.96 -0.001,-0.42 0.299,-1.04 -0.394,-1.206 -0.607,-0.146 -1.063,0.061 -1.497,0.615 -7.589,9.689 -15.205,19.355 -22.814,29.027 C 8.823,-11.221 4.457,-5.667 0,0"
             style="fill:#ffffff;fill-opacity:1;fill-rule:nonzero;stroke:none"
             id="path30" />
        </g>
        <g
           id="g32"
           transform="translate(500.1035,246.3797)">
          <path
             d="m 0,0 c 0.209,0.376 0.104,0.781 0.104,1.163 0.008,7.842 0.004,15.683 0.011,23.525 0.001,0.928 -0.09,1.842 -0.235,2.757 -0.487,3.07 -2.152,4.774 -5.126,5.212 -0.578,0.085 -1.16,0.2 -1.74,0.201 -0.599,0.002 -0.701,0.304 -0.706,0.825 -0.005,0.546 0.246,0.676 0.717,0.675 5.494,-0.009 10.987,-0.009 16.481,0 0.463,0 0.734,-0.109 0.723,-0.663 C 10.219,33.213 10.182,32.816 9.607,32.729 8.915,32.625 8.219,32.528 7.539,32.364 4.988,31.745 3.715,30.239 3.352,27.548 3.174,26.228 3.125,24.908 3.126,23.58 3.128,8.46 3.13,-6.66 3.114,-21.78 c 0,-0.423 0.296,-1.052 -0.299,-1.252 -0.63,-0.213 -1.146,0.048 -1.604,0.632 -10.069,12.839 -20.159,25.661 -30.245,38.485 -1.669,2.123 -3.337,4.246 -5.01,6.365 -0.235,0.297 -0.499,0.569 -0.777,0.885 -0.264,-0.459 -0.151,-0.864 -0.151,-1.246 -0.008,-11.42 -0.009,-22.841 -0.002,-34.261 0,-0.721 0.005,-1.455 0.127,-2.162 0.661,-3.852 2.982,-5.837 6.799,-5.866 0.195,-0.001 0.392,-0.018 0.584,0.003 0.56,0.06 0.748,-0.197 0.754,-0.764 0.005,-0.599 -0.256,-0.746 -0.778,-0.745 -5.922,0.011 -11.844,0.015 -17.766,0.001 -0.576,-0.002 -0.716,0.231 -0.727,0.785 -0.012,0.619 0.26,0.765 0.775,0.726 0.232,-0.017 0.467,0.006 0.7,0.025 4.363,0.34 6.466,2.496 6.49,7.017 0.071,13.349 0.052,26.699 0.065,40.049 0,0.239 0.054,0.548 -0.065,0.706 -1.661,2.209 -3.107,4.71 -6.193,5.065 -0.348,0.041 -0.695,0.156 -1.04,0.144 -0.674,-0.024 -0.721,0.357 -0.726,0.917 -0.007,0.721 0.447,0.62 0.864,0.622 1.831,0.005 3.662,0.004 5.493,0.004 3.974,0 7.949,-0.021 11.922,0.017 0.781,0.007 1.274,-0.252 1.757,-0.881 C -17.502,22.495 -9.043,11.517 -0.583,0.54 -0.428,0.34 -0.335,0.04 0,0"
             style="fill:#ffffff;fill-opacity:1;fill-rule:nonzero;stroke:none"
             id="path34" />
        </g>
        <g
           id="g36"
           transform="translate(370.6794,256.8001)">
          <path
             d="m 0,0 c 0,5.628 0.012,10.735 -0.01,15.842 -0.005,1.001 -0.095,2.01 -0.233,3.002 -0.252,1.814 -1.648,3.106 -3.612,3.382 -0.81,0.113 -1.628,0.192 -2.444,0.214 -0.559,0.014 -0.728,0.228 -0.73,0.793 -0.002,0.631 0.3,0.707 0.799,0.706 8.844,-0.008 17.689,-0.008 26.533,0.004 0.54,10e-4 0.751,-0.156 0.753,-0.747 0.002,-0.6 -0.225,-0.732 -0.757,-0.745 -1.089,-0.028 -2.18,-0.086 -3.262,-0.214 -2.322,-0.276 -3.432,-1.485 -3.738,-3.868 -0.154,-1.201 -0.206,-2.403 -0.206,-3.608 0.003,-10.335 0.008,-20.669 0.027,-31.004 0.003,-1.77 0.186,-3.532 0.482,-5.276 0.536,-3.151 2.396,-5.296 5.1,-6.615 3.987,-1.945 11.204,-1.748 15.357,2.906 2.494,2.794 3.376,6.204 3.575,9.831 0.566,10.325 0.154,20.662 0.229,30.993 0.004,0.557 -0.11,1.117 -0.191,1.673 -0.432,2.985 -1.968,4.546 -4.881,4.953 -0.617,0.086 -1.238,0.164 -1.858,0.179 -0.592,0.015 -0.804,0.245 -0.798,0.872 0.007,0.675 0.377,0.663 0.835,0.663 5.689,-0.004 11.377,-0.004 17.066,0.003 0.502,0.001 0.911,0.009 0.917,-0.72 0.006,-0.687 -0.315,-0.771 -0.865,-0.776 C 47.43,22.436 46.767,22.358 46.115,22.248 43.384,21.788 41.63,19.705 41.401,16.632 41.33,15.672 41.327,14.705 41.326,13.741 41.32,6.583 41.375,-0.576 41.3,-7.733 c -0.036,-3.45 -0.187,-6.897 -0.551,-10.342 -0.757,-7.158 -4.893,-11.457 -11.019,-13.936 -4.712,-1.907 -9.688,-1.764 -14.641,-1.135 -2.376,0.302 -4.61,1.037 -6.728,2.235 -5.042,2.85 -7.616,7.296 -8.114,13.108 C -0.276,-11.702 0.194,-5.586 0,0"
             style="fill:#ffffff;fill-opacity:1;fill-rule:nonzero;stroke:none"
             id="path38" />
        </g>
        <g
           id="g40"
           transform="translate(676.3069,233.9874)">
          <path
             d="m 0,0 c 0.001,3.137 -0.008,6.273 0.01,9.41 0.003,0.453 -0.271,1.079 0.593,1.159 0.795,0.075 0.946,-0.362 1.094,-1.018 1.04,-4.612 2.769,-8.875 6.171,-12.207 4.14,-4.054 8.913,-6.167 14.689,-4.649 3.031,0.797 5.197,2.781 6.094,5.913 0.928,3.237 -0.3,5.918 -2.518,8.169 -2.428,2.464 -5.495,3.912 -8.482,5.46 -3.444,1.786 -6.906,3.549 -10.037,5.882 -4.059,3.026 -6.973,6.837 -7.509,12.219 -0.727,7.285 3.585,14.304 10.354,16.621 5.312,1.818 10.496,1.37 15.533,-1.129 0.944,-0.469 1.905,-0.916 2.891,-1.277 2.139,-0.783 3.172,-0.212 3.854,2.048 0.081,0.268 0.151,0.541 0.203,0.816 0.095,0.507 0.421,0.598 0.861,0.588 0.528,-0.012 0.504,-0.372 0.512,-0.743 0.095,-4.018 0.191,-8.036 0.292,-12.053 0.041,-1.607 0.115,-3.213 0.133,-4.819 0.005,-0.406 0.267,-1.014 -0.546,-1.049 -0.692,-0.03 -1.152,0.041 -1.297,0.925 -0.378,2.318 -1.163,4.512 -2.402,6.485 -2.897,4.61 -6.779,7.752 -12.274,8.166 -3.124,0.235 -5.949,-0.577 -8.033,-3.238 -2.058,-2.628 -2.011,-6.029 0.121,-8.604 1.599,-1.931 3.626,-3.26 5.758,-4.456 3.692,-2.072 7.564,-3.792 11.162,-6.041 3.105,-1.94 6.156,-3.965 8.253,-7.152 3.917,-5.95 3.49,-13.898 -1.076,-19.351 -4.593,-5.485 -10.555,-7.225 -17.337,-6.656 -2.667,0.223 -5.16,1.12 -7.619,2.146 -0.72,0.301 -1.439,0.623 -2.184,0.84 C 4.929,-6.917 3.187,-7.661 1.898,-9.804 1.721,-10.098 1.676,-10.499 1.3,-10.655 0.53,-10.976 0.003,-10.579 0.001,-9.651 -0.004,-6.434 -0.001,-3.217 0,0"
             style="fill:#ffffff;fill-opacity:1;fill-rule:nonzero;stroke:none"
             id="path42" />
        </g>
        <g
           id="g44"
           transform="translate(630.6336,233.9425)">
          <path
             d="m 0,0 c 0,3.096 -0.019,6.193 0.021,9.288 0.006,0.448 -0.421,1.18 0.518,1.316 0.848,0.122 0.995,-0.362 1.162,-1.081 0.984,-4.229 2.514,-8.209 5.471,-11.42 3.41,-3.702 7.467,-6.014 12.579,-5.836 2.144,0.075 4.141,0.649 5.89,1.999 3.989,3.08 4.385,8.355 0.946,12.096 -2.222,2.418 -5.048,3.871 -7.849,5.355 -3.392,1.797 -6.839,3.49 -10.028,5.664 -3.411,2.324 -6.309,5.156 -7.757,9.212 -3.181,8.903 1.948,18.63 11.01,20.887 5.038,1.255 9.884,0.596 14.513,-1.824 0.864,-0.451 1.771,-0.835 2.691,-1.147 1.86,-0.63 2.882,-0.067 3.498,1.844 0.111,0.342 0.23,0.69 0.276,1.045 0.065,0.501 0.309,0.674 0.782,0.662 0.557,-0.013 0.617,-0.389 0.626,-0.812 0.037,-1.97 0.055,-3.939 0.104,-5.908 0.091,-3.694 0.196,-7.388 0.3,-11.083 0.012,-0.399 0.136,-0.884 -0.483,-0.845 -0.505,0.032 -1.137,-0.331 -1.319,0.672 -0.669,3.664 -2.107,6.981 -4.653,9.678 -3.784,4.008 -8.234,6.179 -13.777,4.837 -4.115,-0.996 -6.622,-4.988 -5.591,-8.862 0.636,-2.389 2.386,-3.929 4.254,-5.265 2.63,-1.88 5.554,-3.231 8.401,-4.717 4.173,-2.178 8.36,-4.357 11.769,-7.746 6.685,-6.644 6.355,-17.59 -0.748,-23.782 -6.208,-5.412 -13.268,-5.97 -20.755,-3.545 -1.518,0.492 -2.962,1.223 -4.476,1.729 -2.366,0.79 -4.164,0.036 -5.461,-2.168 -0.101,-0.171 -0.193,-0.347 -0.283,-0.525 -0.296,-0.586 -0.827,-0.342 -1.252,-0.329 -0.555,0.016 -0.363,0.526 -0.365,0.84 C 0.001,-6.514 0.006,-3.257 0.006,0 Z"
             style="fill:#ffffff;fill-opacity:1;fill-rule:nonzero;stroke:none"
             id="path46" />
        </g>
        <g
           id="g48"
           transform="translate(437.0397,280.7337)">
          <path
             d="M 0,0 C 4.323,0 8.647,0.005 12.97,-0.008 13.45,-0.01 14.084,0.25 14.08,-0.737 14.076,-1.715 13.45,-1.458 12.965,-1.467 11.598,-1.493 10.247,-1.575 8.96,-2.128 7.575,-2.723 6.795,-3.81 6.594,-5.308 6.455,-6.34 6.38,-7.389 6.378,-8.431 6.365,-21.576 6.368,-34.722 6.372,-47.867 c 0.001,-0.643 0.011,-1.289 0.077,-1.927 0.316,-3.041 1.971,-4.62 4.969,-4.753 0.622,-0.028 1.247,-0.029 1.869,-0.003 0.504,0.021 0.784,-0.078 0.789,-0.709 0.005,-0.659 -0.251,-0.81 -0.831,-0.81 -8.92,0.013 -17.839,0.011 -26.759,0.004 -0.54,-0.001 -0.874,0.098 -0.885,0.782 -0.011,0.733 0.386,0.739 0.897,0.734 1.05,-0.012 2.096,-0.037 3.136,0.22 2.053,0.507 3.099,1.59 3.433,3.725 0.117,0.75 0.186,1.517 0.186,2.276 0.009,13.588 -0.042,27.176 0.028,40.763 0.024,4.814 -2.28,5.914 -6.019,6.123 -0.559,0.031 -1.683,-0.665 -1.62,0.761 0.056,1.274 1.08,0.641 1.622,0.648 C -8.491,0.027 -4.246,0 0,0"
             style="fill:#ffffff;fill-opacity:1;fill-rule:nonzero;stroke:none"
             id="path50" />
        </g>
        <g
           id="g52"
           transform="translate(451.2803,184.0679)">
          <path
             d="M 0,0 C 0.359,0.966 0.225,1.703 0.227,2.416 0.246,7.894 0.256,13.372 0.228,18.85 0.224,19.714 0.417,20.045 1.37,20.019 3.877,19.95 3.878,20 3.877,17.435 3.875,10.067 3.858,2.699 3.893,-4.669 3.898,-5.608 3.666,-5.877 2.69,-5.937 1.194,-6.03 0.245,-5.506 -0.709,-4.35 -5.54,1.504 -10.47,7.275 -15.364,13.076 c -0.219,0.26 -0.426,0.531 -0.639,0.797 -0.108,-0.038 -0.216,-0.076 -0.324,-0.114 0,-0.435 0,-0.871 0,-1.307 0.002,-5.709 -0.02,-11.418 0.026,-17.127 0.008,-0.956 -0.241,-1.259 -1.211,-1.239 -2.467,0.05 -2.461,0.006 -2.46,2.519 0.001,7.291 -0.002,14.582 -0.005,21.873 -0.001,1.53 -0.002,1.487 1.568,1.537 1.065,0.033 1.822,-0.235 2.563,-1.124 C -10.791,12.822 -5.657,6.818 -0.552,0.79 -0.381,0.588 -0.247,0.355 0,0"
             style="fill:#cd9336;fill-opacity:1;fill-rule:nonzero;stroke:none"
             id="path54" />
        </g>
        <g
           id="g56"
           transform="translate(492.2135,185.3121)">
          <path
             d="m 0,0 c 0,-1.543 -0.002,-3.086 0.001,-4.628 0.001,-0.436 -0.021,-0.809 -0.534,-1.019 -4.813,-1.976 -9.698,-2.873 -14.698,-0.765 -5.604,2.363 -8.575,7.65 -8.107,13.162 0.518,6.105 4.984,10.959 10.772,12.017 3.977,0.726 7.814,0.228 11.536,-1.342 0.647,-0.274 0.872,-0.635 0.814,-1.296 -0.081,-0.916 0.403,-2.187 -0.201,-2.66 -0.606,-0.474 -1.543,0.538 -2.351,0.856 -3.432,1.353 -6.894,1.925 -10.466,0.575 -4.164,-1.574 -6.713,-5.738 -6.226,-10.156 0.496,-4.497 3.885,-8.002 8.302,-8.699 2.278,-0.359 4.442,-0.022 6.589,0.707 0.582,0.198 0.885,0.467 0.849,1.145 -0.056,1.077 -0.049,2.161 0.01,3.238 0.043,0.784 -0.281,1.013 -1.011,0.983 -1.001,-0.042 -2.006,0.012 -3.007,-0.025 -0.648,-0.024 -0.857,0.233 -0.895,0.868 -0.153,2.584 -0.172,2.583 2.396,2.584 1.736,0 3.474,-0.049 5.207,0.02 C -0.176,5.598 0.042,5.286 0.021,4.512 -0.018,3.009 0.01,1.504 0.01,0 Z"
             style="fill:#cd9336;fill-opacity:1;fill-rule:nonzero;stroke:none"
             id="path58" />
        </g>
        <g
           id="g60"
           transform="translate(521.3319,196.806)">
          <path
             d="m 0,0 h 0.01 c 0,-1.078 -0.001,-2.155 0,-3.233 10e-4,-0.401 0.014,-0.789 0.579,-0.79 1.766,-0.003 3.546,-0.151 5.26,0.437 1.584,0.543 2.428,1.918 2.366,3.816 C 8.15,2.226 7.328,3.335 5.587,3.812 3.957,4.259 2.294,3.993 0.647,4.07 0.027,4.098 -0.004,3.687 -0.002,3.233 0.003,2.155 0,1.078 0,0 m 7.518,-6.254 c 3.28,-3.758 5.581,-8.119 8.665,-12.369 -1.612,0 -2.861,-0.01 -4.108,0.005 -0.566,0.006 -0.725,0.516 -0.973,0.887 -1.839,2.754 -3.531,5.607 -5.533,8.253 -1.077,1.423 -2.417,2.314 -4.267,2.412 -0.982,0.051 -1.351,-0.184 -1.326,-1.251 0.071,-3.083 -0.009,-6.17 0.046,-9.254 0.016,-0.894 -0.275,-1.089 -1.119,-1.077 -2.596,0.038 -2.601,0.002 -2.601,2.624 -10e-4,7.328 0.019,14.655 -0.018,21.982 -0.005,0.982 0.207,1.371 1.267,1.325 C 0.36,7.161 3.183,7.436 5.984,7.042 8.518,6.686 10.609,5.536 11.486,3.043 12.406,0.426 12.341,-2.192 10.396,-4.467 9.623,-5.371 8.458,-5.653 7.518,-6.254"
             style="fill:#cd9336;fill-opacity:1;fill-rule:nonzero;stroke:none"
             id="path62" />
        </g>
        <g
           id="g64"
           transform="translate(497.0528,191.2065)">
          <path
             d="m 0,0 c 0,3.898 0.022,7.796 -0.017,11.694 -0.009,0.891 0.24,1.196 1.169,1.187 4.438,-0.044 8.876,-0.032 13.314,-0.002 0.787,0.006 1.099,-0.213 1.06,-1.043 C 15.408,9.287 15.936,9.601 13.354,9.594 10.498,9.586 7.642,9.567 4.787,9.609 3.937,9.621 3.631,9.367 3.657,8.491 3.714,6.563 3.708,4.632 3.66,2.703 3.64,1.91 3.87,1.635 4.695,1.647 7.781,1.692 10.87,1.638 13.956,1.684 14.913,1.698 15.228,1.385 15.201,0.421 15.142,-1.683 15.187,-1.68 13.132,-1.678 10.353,-1.675 7.574,-1.706 4.796,-1.663 3.977,-1.65 3.624,-1.819 3.656,-2.733 3.724,-4.699 3.727,-6.671 3.66,-8.637 3.628,-9.587 3.981,-9.801 4.862,-9.79 c 3.319,0.042 6.639,-0.017 9.957,0.033 0.923,0.014 1.172,-0.275 1.151,-1.175 -0.047,-2.093 -0.002,-2.093 -2.045,-2.094 -4.245,-10e-4 -8.491,0.027 -12.735,-0.026 -0.982,-0.012 -1.23,0.298 -1.219,1.243 0.048,3.936 0.02,7.873 0.02,11.809 z"
             style="fill:#cd9336;fill-opacity:1;fill-rule:nonzero;stroke:none"
             id="path66" />
        </g>
        <g
           id="g68"
           transform="translate(557.586,198.0811)">
          <path
             d="m 0,0 c -0.104,0.012 -0.208,0.025 -0.312,0.037 -1.172,-2.756 -2.344,-5.511 -3.513,-8.268 -0.229,-0.54 -0.048,-0.788 0.546,-0.786 2.119,0.01 4.238,0.013 6.357,-0.002 0.624,-0.005 0.755,0.288 0.536,0.79 C 2.417,-5.482 1.206,-2.742 0,0 m 10.307,-19.903 c -1.189,-0.365 -1.796,0.351 -2.25,1.574 -0.657,1.768 -1.503,3.464 -2.231,5.206 -0.254,0.609 -0.592,0.87 -1.287,0.862 -3.088,-0.037 -6.177,-0.031 -9.264,-0.003 -0.631,0.006 -0.969,-0.19 -1.214,-0.787 -0.803,-1.962 -1.702,-3.886 -2.484,-5.856 -0.306,-0.77 -0.716,-1.131 -1.543,-1.003 -0.264,0.041 -0.54,0.008 -0.81,0.008 -1.886,0.002 -1.875,-0.003 -1.14,1.688 3.333,7.674 6.665,15.348 9.981,23.029 0.305,0.708 0.553,1.263 1.536,1.196 0.962,-0.065 1.68,-0.06 2.164,-1.188 3.329,-7.758 6.747,-15.478 10.139,-23.21 0.67,-1.525 0.675,-1.523 -1.047,-1.516 -0.116,0 -0.231,0 -0.55,0"
             style="fill:#cd9336;fill-opacity:1;fill-rule:nonzero;stroke:none"
             id="path70" />
        </g>
        <g
           id="g72"
           transform="translate(542.8785,191.1674)">
          <path
             d="m 0,0 c 0,-3.894 -0.027,-7.788 0.019,-11.681 0.012,-0.951 -0.152,-1.365 -1.244,-1.333 -2.475,0.072 -2.461,0.01 -2.46,2.519 0.003,7.364 0.008,14.727 -0.032,22.09 -0.005,0.968 0.195,1.361 1.266,1.33 2.446,-0.073 2.446,-0.016 2.445,-2.516 -0.001,-3.47 0,-6.939 0,-10.409 z"
             style="fill:#cd9336;fill-opacity:1;fill-rule:nonzero;stroke:none"
             id="path74" />
        </g>
        <g
           id="g76"
           transform="translate(464.5122,190.9749)">
          <path
             d="m 0,0 c 0,-3.853 -0.024,-7.706 0.018,-11.559 0.009,-0.905 -0.166,-1.297 -1.19,-1.268 -2.481,0.071 -2.479,0.02 -2.478,2.533 0.003,7.283 10e-4,14.565 0.007,21.847 0.002,1.533 0.013,1.533 1.479,1.536 2.177,0.005 2.174,0.005 2.173,-2.223 C 0.006,7.244 0.008,3.622 0.008,0 Z"
             style="fill:#cd9336;fill-opacity:1;fill-rule:nonzero;stroke:none"
             id="path78" />
        </g>
        <g
           id="g80"
           transform="translate(581.5453,194.8629)">
          <path
             d="m 0,0 -0.068,-5.529 39.862,2.015 z"
             style="fill:#cd9336;fill-opacity:1;fill-rule:nonzero;stroke:none"
             id="path82" />
        </g>
        <g
           id="g84"
           transform="translate(419.6652,194.8629)">
          <path
             d="m 0,0 0.068,-5.529 -39.862,2.015 z"
             style="fill:#cd9336;fill-opacity:1;fill-rule:nonzero;stroke:none"
             id="path86" />
        </g>
        <g
           id="g88"
           transform="translate(209.3198,582.6363)">
          <path
             d="m 0,0 c -0.161,-1.272 0.149,-2.507 0.32,-3.742 0.628,-4.519 2.604,-8.529 5.266,-12.254 0.49,-0.685 1.111,-1.213 1.788,-0.105 3.937,6.432 7.984,12.805 11.466,19.481 0.683,1.31 0.69,2.64 -0.366,3.816 C 16.826,9.033 14.939,10.605 12.611,11.6 8.791,13.233 5.52,12.483 2.881,9.339 0.595,6.615 0.136,3.342 0,0 m 10.511,-24.843 c -0.059,-0.761 0.231,-1.348 0.535,-1.94 1.806,-3.513 3.584,-7.04 5.409,-10.545 0.641,-1.231 0.995,-3.021 2.689,-3.058 1.718,-0.038 2.177,1.774 2.8,2.976 5.129,9.887 10.179,19.811 15.248,29.727 1.11,2.17 0.942,2.655 -1.287,3.902 -2.699,1.509 -5.398,3.019 -8.095,4.533 -2.112,1.186 -3.053,0.863 -4.114,-1.294 -3.726,-7.581 -7.831,-14.968 -12.454,-22.085 -0.467,-0.718 -0.799,-1.439 -0.731,-2.216 m 11.717,-23.002 c 0.021,-1.107 0.466,-1.88 0.856,-2.663 1.837,-3.681 3.692,-7.354 5.529,-11.035 0.36,-0.72 0.449,-1.854 1.371,-1.896 0.986,-0.045 1.324,1.049 1.766,1.798 0.056,0.095 0.086,0.202 0.136,0.3 4.479,8.862 8.941,17.731 13.444,26.581 3.355,6.594 6.735,13.177 10.172,19.731 0.74,1.41 0.405,2.268 -0.997,2.864 -3.273,1.391 -6.556,2.758 -9.834,4.138 -1.235,0.52 -2.067,0.362 -2.71,-0.966 -1.769,-3.65 -3.673,-7.24 -5.53,-10.85 -4.571,-8.882 -9.149,-17.761 -13.711,-26.648 -0.247,-0.481 -0.373,-1.019 -0.492,-1.354 m 83.297,36.664 c 3.973,0.061 10.072,0.618 16.07,2.028 13.746,3.232 25.928,9.593 37.511,17.145 1.955,1.275 2.066,3.393 0.442,5.424 -1.204,1.505 -3.011,1.662 -4.794,0.363 -4.171,-3.038 -8.478,-5.855 -13.062,-8.319 -8.231,-4.424 -16.99,-7.331 -26.293,-8.669 -7.345,-1.057 -14.738,-1.005 -22.142,-0.435 -7.283,0.56 -14.408,1.943 -21.427,3.752 -13.985,3.606 -27.394,8.727 -40.476,14.641 -4.628,2.092 -9.212,4.27 -13.802,6.438 -1.269,0.599 -2.273,0.623 -2.947,-0.776 C 13.96,19.072 14.32,18.179 15.95,17.44 22.421,14.504 28.897,11.578 35.379,8.664 46.507,3.662 57.731,-1.129 69.375,-4.942 c 11.01,-3.605 22.247,-6.171 36.15,-6.239 M 62.03,-15.055 c -1.132,0.095 -1.613,-0.672 -2.015,-1.467 -1.76,-3.477 -3.476,-6.974 -5.239,-10.45 -6.779,-13.371 -13.539,-26.752 -20.392,-40.088 -1.003,-1.952 -1.068,-3.673 -0.074,-5.584 2.356,-4.53 4.639,-9.095 6.956,-13.644 0.194,-0.381 0.307,-0.949 0.79,-0.973 0.601,-0.029 0.763,0.593 0.98,1.012 1.289,2.488 2.553,4.987 3.82,7.485 5.614,11.071 11.216,22.148 16.843,33.213 4.134,8.129 8.287,16.25 12.469,24.356 0.68,1.318 0.388,1.96 -1.1,2.349 -3.178,0.832 -6.341,1.718 -9.454,2.77 -1.166,0.394 -2.303,0.956 -3.584,1.021 M 45.045,-92.937 c -0.001,-0.664 0.33,-1.197 0.592,-1.734 0.915,-1.874 1.843,-3.743 2.798,-5.598 2.011,-3.905 3.974,-7.835 6.094,-11.686 1.024,-1.861 1.756,-1.813 2.698,0.091 2.799,5.654 5.499,11.353 8.279,17.016 3.337,6.798 6.74,13.568 10.07,20.369 4.343,8.867 8.639,17.755 12.962,26.63 3.484,7.154 6.999,14.293 10.455,21.458 0.853,1.768 0.581,2.144 -1.424,2.502 -4.571,0.815 -9.152,1.594 -13.634,2.794 -1.526,0.409 -2.472,0.059 -3.142,-1.345 -1.206,-2.525 -2.514,-5.005 -3.788,-7.5 -6.371,-12.471 -12.741,-24.944 -19.121,-37.412 -4.076,-7.967 -8.174,-15.925 -12.245,-23.895 -0.271,-0.53 -0.399,-1.125 -0.594,-1.69 m 14.112,-27.083 c -0.111,-0.904 0.196,-1.753 0.58,-2.527 3.196,-6.444 6.432,-12.87 9.674,-19.292 0.259,-0.513 0.454,-1.194 1.262,-1.159 0.817,0.035 0.883,0.731 1.124,1.268 5.54,12.356 11.053,24.723 16.635,37.062 5.695,12.588 11.466,25.146 17.193,37.721 5.635,12.374 11.255,24.754 16.887,37.129 0.859,1.887 0.648,2.315 -1.438,2.582 -4.892,0.626 -9.79,1.205 -14.678,1.856 -1.02,0.136 -1.585,-0.14 -2.012,-1.033 -1.728,-3.614 -3.509,-7.205 -5.27,-10.805 -8.85,-18.099 -17.697,-36.2 -26.553,-54.297 -3.907,-7.985 -7.868,-15.947 -11.719,-23.957 -0.697,-1.45 -1.93,-2.764 -1.685,-4.548 m 75.428,62.822 c -0.517,6.976 -1.323,13.898 -2.44,20.79 -0.087,0.536 -0.222,1.077 -0.431,1.579 -0.553,1.322 -1.607,1.509 -2.624,0.461 -0.863,-0.889 -1.404,-1.983 -1.898,-3.083 -5.296,-11.805 -10.6,-23.607 -15.861,-35.426 -6.087,-13.677 -12.119,-27.376 -18.201,-41.055 -5.456,-12.27 -10.94,-24.528 -16.435,-36.783 -0.695,-1.552 -0.737,-3.028 0.031,-4.561 2.904,-5.794 5.647,-11.667 8.726,-17.375 1.671,-3.099 1.356,-5.66 -0.552,-8.522 -4.184,-6.279 -9.445,-11.569 -15.356,-16.342 -1.137,-0.918 -1.506,-0.569 -1.997,0.521 -1.961,4.35 -3.972,8.679 -5.989,13.006 -6.442,13.826 -12.903,27.644 -19.342,41.472 -4.54,9.75 -9.048,19.513 -13.584,29.264 -6.178,13.28 -12.374,26.553 -18.554,39.831 -4.952,10.639 -9.9,21.279 -14.836,31.925 -4.083,8.806 -8.187,17.604 -12.203,26.437 -2.682,5.901 -8.486,9.11 -15.119,8.194 -9.662,-1.335 -14.775,-12.85 -9.279,-20.539 4.868,-6.811 15.042,-7.819 20.888,-2.377 1.389,1.293 1.525,1.249 2.289,-0.511 3.707,-8.545 7.139,-17.192 10.578,-25.838 4.63,-11.639 9.367,-23.24 14.074,-34.85 7.178,-17.705 14.288,-35.435 21.582,-53.096 5.477,-13.261 11.173,-26.441 16.818,-39.639 4.268,-9.981 8.75,-19.875 13.393,-29.701 1.222,-2.588 2.104,-2.759 4.578,-1.162 8.735,5.64 16.37,12.472 23.364,19.967 12.777,13.689 22.74,29.117 30.43,45.885 7.185,15.668 12.174,31.97 15.04,48.877 1.873,11.05 2.821,22.156 2.906,33.339 0.024,3.104 0.004,6.208 0.004,9.312 M 86.631,-235.496 c 1.539,1.553 2.862,2.877 4.172,4.213 11.891,12.13 22.168,25.427 31.226,39.598 5.704,8.923 10.856,18.123 15.469,27.619 3.917,8.061 7.441,16.262 10.47,24.65 3.922,10.861 7.053,21.934 9.303,33.235 1.438,7.223 2.578,14.482 3.297,21.796 0.457,4.658 0.692,9.335 0.867,14.018 0.191,5.075 0.071,10.137 -0.116,15.197 -0.25,6.746 -0.933,13.458 -1.9,20.153 -1.06,7.339 -2.595,14.58 -4.286,21.799 -0.136,0.578 -0.348,1.153 -0.618,1.686 -1.247,2.466 -3.296,3.553 -5.427,2.92 -1.698,-0.505 -2.714,-2.86 -2.474,-5.256 0.345,-3.45 1.858,-6.608 2.545,-9.972 1.55,-7.59 2.786,-15.212 3.477,-22.928 0.506,-5.651 0.845,-11.311 0.883,-16.965 0.069,-10.297 -0.647,-20.563 -1.915,-30.802 -1.335,-10.774 -3.389,-21.404 -6.216,-31.902 -2.642,-9.817 -6.168,-19.336 -10.285,-28.68 -5.521,-12.53 -12.131,-24.506 -19.755,-35.956 -9.242,-13.88 -19.8,-26.77 -32.526,-37.928 -7.657,-6.715 -15.881,-12.719 -24.972,-17.573 -2.499,-1.334 -5.189,-2.287 -8.063,-2.486 -4.97,-0.345 -8.407,2.173 -11.169,5.782 -4.367,5.705 -6.826,12.269 -9.189,18.868 -4.111,11.482 -8.223,22.964 -12.286,34.461 -4.133,11.696 -8.201,23.413 -12.312,35.116 -2.629,7.482 -5.33,14.94 -7.92,22.434 -5.696,16.48 -11.368,32.967 -17.001,49.467 -4.078,11.947 -8.084,23.917 -12.11,35.881 -0.855,2.539 -1.69,5.086 -2.467,7.648 -0.273,0.9 -0.801,1.453 -1.62,1.951 -6.698,4.069 -10.653,9.749 -10.681,17.5 -0.014,4.134 1.736,7.736 4.588,10.809 3.018,3.253 5.559,6.741 6.726,11.03 0.792,2.911 0.778,5.827 0.181,8.735 -1.22,5.95 1.035,10.712 5.486,14.653 5.605,4.963 12.519,7.38 19.81,9.01 8.288,1.852 16.684,1.997 25.136,1.667 11.892,-0.465 23.185,-3.491 34.389,-7.02 9.131,-2.875 18.27,-5.738 27.793,-7.268 14.118,-2.269 27.964,-0.993 41.741,2.461 7.695,1.929 14.578,5.511 21.652,8.743 4.161,1.901 8.267,3.92 12.637,5.366 1.286,0.426 2.611,0.788 3.948,1.026 3.433,0.61 6.009,-0.688 7.585,-3.656 0.94,-1.771 1.514,-3.662 1.854,-5.589 0.672,-3.797 2.446,-7.095 4.633,-10.251 0.942,-1.36 1.8,-2.778 2.306,-4.359 0.525,-1.638 0.638,-3.39 -0.464,-4.714 -1.912,-2.295 -2.811,-5.083 -4.426,-7.486 -1.058,-1.575 -1.062,-3.049 -0.807,-4.772 0.997,-6.731 1.85,-13.48 2.584,-20.246 1.082,-9.974 1.576,-19.977 1.955,-29.987 0.225,-5.938 -0.005,-11.883 -0.266,-17.821 -0.305,-6.958 -0.885,-13.889 -1.671,-20.816 -1.538,-13.563 -4.33,-26.876 -8.356,-39.945 -5.864,-19.029 -14.37,-36.911 -25.682,-53.567 -5.845,-8.608 -12.285,-16.768 -19.358,-24.48 -8.769,-9.563 -18.35,-18.318 -28.605,-26.407 -0.38,-0.3 -0.697,-0.737 -1.77,-0.66"
             style="fill:#cd9336;fill-opacity:1;fill-rule:nonzero;stroke:none"
             id="path90" />
        </g>
        <g
           id="g92"
           transform="translate(176.0031,555.8924)">
          <path
             d="m 0,0 c -4.358,0.056 -7.116,2.824 -7.063,7.09 0.044,3.58 3.172,6.461 6.966,6.417 C 3.843,13.461 7.171,10.299 7.098,6.671 7.023,2.96 3.822,-0.049 0,0"
             style="fill:#cd9336;fill-opacity:1;fill-rule:nonzero;stroke:none"
             id="path94" />
        </g>
        <g
           id="g96"
           transform="translate(422.3197,355.8244)">
          <path
             d="m 0,0 c 28.894,-5.474 53.193,-14.632 80.032,-24.314 4.235,-1.542 8.47,-3.085 12.747,-4.583 2.508,-0.908 11.369,-4.196 13.219,-4.569 2.836,-1.882 35.119,-10.633 38.478,-11.433 13.734,-3.185 29.378,-5.929 44.3,-5.915 16.259,-0.375 32.982,2.344 47.243,7.339 10.453,3.646 18.374,7.599 27.492,13.042 2.058,1.259 6.763,4.092 8.176,5.458 l -8.883,-3.254 c -21.381,-7.132 -41.694,-8.46 -64.09,-5.83 -1.975,0.241 -9.196,1.524 -10.473,1.358 -0.612,0.452 -9.381,2.032 -10.974,2.369 -16.869,3.691 -35.823,9.887 -51.944,15.739 -2.767,0.986 -18.725,7.142 -19.924,7.148 C 104.65,-6.611 83.693,0.807 80.97,1.753 59.454,9.369 38.082,16.39 15.191,19.775 12.099,20.24 2.61,21.627 -0.074,21.248 c -1.439,0.941 -16.299,0.331 -19.075,0.163 -29.533,-1.815 -56.462,-13.684 -78.535,-32.081 -2.797,-2.349 -13.008,-11.203 -15.611,-14.357 3.106,1.973 6.531,4.724 10.561,7.281 26.645,17.121 55.236,23.311 87.145,19.979 C -10.228,1.664 -5.239,0.744 0,0"
             style="fill:#cd9336;fill-opacity:1;fill-rule:evenodd;stroke:none"
             id="path98" />
        </g>
        <g
           id="g100"
           transform="translate(371.4551,345.7046)">
          <path
             d="m 0,0 c -10.037,-0.405 -20.133,-2.402 -28.671,-4.796 -4.099,-1.152 -8.196,-2.516 -11.946,-3.962 -3.024,-1.174 -8.693,-3.47 -10.812,-4.799 1.71,0.29 3.672,1.013 5.465,1.478 1.751,0.462 3.763,0.929 5.642,1.352 3.932,0.847 7.999,1.482 12.24,1.994 9.897,1.088 17.845,0.768 27.685,0.226 11.526,-1.026 22.511,-3.008 33.672,-5.242 5.301,-1.101 10.432,-2.292 15.735,-3.522 5.003,-1.148 11.087,-2.837 16.039,-3.643 1.814,-0.654 7.202,-1.666 9.486,-2.138 3.317,-0.71 6.508,-1.421 9.827,-2.046 6.549,-1.249 14.179,-2.95 20.93,-3.593 3.668,-0.962 19.837,-2.414 24.438,-2.755 8.34,-0.572 19.555,-1.131 27.956,-0.542 l -13.738,2.272 c -8.831,1.635 -17.329,3.791 -25.744,6.121 -2.114,0.56 -11.225,3.392 -12.47,3.412 -0.914,0.626 -8.771,2.838 -9.935,3.202 -5.311,1.53 -28.202,8.779 -30.818,8.687 -1.087,0.665 -5.611,1.567 -6.949,1.885 -2.543,0.595 -4.828,1.11 -7.414,1.662 C 34.628,-1.36 17.066,1.011 0,0"
             style="fill:#cd9336;fill-opacity:1;fill-rule:evenodd;stroke:none"
             id="path102" />
        </g>
        <g
           id="g104"
           transform="translate(565.6362,345.1347)">
          <path
             d="M 0,0 C 152.272,-44.655 218.843,73.198 219.527,72.691 152.684,-39.298 46.641,-20.269 0,0"
             style="fill:#cd9336;fill-opacity:1;fill-rule:nonzero;stroke:none"
             id="path106" />
        </g>
        <g
           id="g108"
           transform="translate(795.4043,436.3335)">
          <path
             d="m 0,0 c -11.565,-4.239 -14.024,-10.804 -11.116,-17.921 0.167,-0.405 6.927,10.91 7.884,12.459 C -4.834,-9.049 -9.009,-18.886 -8.233,-18.739 -1.388,-17.24 2.381,-11.508 0,0"
             style="fill:#cd9336;fill-opacity:1;fill-rule:evenodd;stroke:none"
             id="path110" />
        </g>
        <g
           id="g112"
           transform="translate(746.2225,337.4454)">
          <path
             d="m 0,0 c -15.149,-12.598 -31.469,-10.452 -38.96,-0.737 -0.362,0.53 25.339,0.061 28.253,0.126 -6.209,0.676 -27.909,3.558 -27.091,4.449 C -30.226,12.153 -13.981,12.409 0,0"
             style="fill:#cd9336;fill-opacity:1;fill-rule:evenodd;stroke:none"
             id="path114" />
        </g>
        <g
           id="g116"
           transform="translate(765.6053,352.4233)">
          <path
             d="m 0,0 c -13.042,-10.92 -27.166,-9.038 -33.639,-0.642 -0.308,0.443 21.913,0.052 24.409,0.134 -5.368,0.552 -24.075,3.04 -23.388,3.831 C -26.079,10.497 -12.057,10.739 0,0"
             style="fill:#cd9336;fill-opacity:1;fill-rule:evenodd;stroke:none"
             id="path118" />
        </g>
        <g
           id="g120"
           transform="translate(780.7569,369.6094)">
          <path
             d="m 0,0 c -10.773,-10.902 -23.592,-10.456 -30.106,-3.453 -0.348,0.346 19.603,1.929 21.853,2.225 -4.867,0.029 -21.869,0.647 -21.272,1.383 C -24.315,7.146 -11.767,8.581 0,0"
             style="fill:#cd9336;fill-opacity:1;fill-rule:evenodd;stroke:none"
             id="path122" />
        </g>
        <g
           id="g124"
           transform="translate(791.2844,386.0069)">
          <path
             d="m 0,0 c -8.998,-10.453 -20.557,-10.799 -26.805,-4.936 -0.349,0.346 17.496,2.894 19.459,3.309 -4.337,-0.257 -19.64,-0.727 -19.181,0 C -22.264,4.973 -11.055,7.009 0,0"
             style="fill:#cd9336;fill-opacity:1;fill-rule:evenodd;stroke:none"
             id="path126" />
        </g>
        <g
           id="g128"
           transform="translate(802.2215,399.1897)">
          <path
             d="m 0,0 c -8.614,-9.963 -19.617,-10.316 -25.619,-4.668 -0.299,0.304 16.719,2.747 18.639,3.114 -4.199,-0.248 -18.81,-0.67 -18.348,0.011 C -21.227,4.722 -10.567,6.673 0,0"
             style="fill:#cd9336;fill-opacity:1;fill-rule:evenodd;stroke:none"
             id="path130" />
        </g>
        <g
           id="g132"
           transform="translate(807.5613,412.2582)">
          <path
             d="m 0,0 c -7.929,-9.173 -18.055,-9.465 -23.561,-4.29 -0.295,0.257 15.392,2.513 17.128,2.867 -3.83,-0.222 -17.286,-0.609 -16.913,0.02 C -19.581,4.374 -9.745,6.175 0,0"
             style="fill:#cd9336;fill-opacity:1;fill-rule:evenodd;stroke:none"
             id="path134" />
        </g>
        <g
           id="g136"
           transform="translate(712.1326,384.9104)">
          <path
             d="m 0,0 c -18.078,-7.799 -23.524,-23.331 -18.208,-34.403 0.273,-0.583 11.484,22.581 12.834,25.13 -2.184,-5.851 -9.404,-26.466 -8.222,-26.151 C -2.778,-32.441 4.786,-18.058 0,0"
             style="fill:#cd9336;fill-opacity:1;fill-rule:evenodd;stroke:none"
             id="path138" />
        </g>
        <g
           id="g140"
           transform="translate(727.1124,389.3413)">
          <path
             d="m 0,0 c -12.64,-8.715 -14.48,-21.493 -8.708,-29.15 0.306,-0.395 5.338,19.046 6.02,21.225 -0.82,-4.83 -3.204,-21.724 -2.355,-21.292 C 2.791,-25.288 6.433,-13.124 0,0"
             style="fill:#cd9336;fill-opacity:1;fill-rule:evenodd;stroke:none"
             id="path142" />
        </g>
        <g
           id="g144"
           transform="translate(737.9587,401.1744)">
          <path
             d="m 0,0 c -9.835,-11.716 -8.203,-24.435 -0.611,-30.298 0.392,-0.296 0.054,19.742 0.129,21.971 C 0.041,-13.155 2.241,-30.005 2.94,-29.4 9.385,-23.528 9.656,-10.86 0,0"
             style="fill:#cd9336;fill-opacity:1;fill-rule:evenodd;stroke:none"
             id="path146" />
        </g>
        <g
           id="g148"
           transform="translate(753.0984,409.9262)">
          <path
             d="m 0,0 c -9.539,-9.98 -8.781,-21.465 -2.361,-27.131 0.348,-0.345 1.219,17.646 1.446,19.701 0.123,-4.393 1.144,-19.658 1.804,-19.149 C 7.034,-21.701 7.998,-10.327 0,0"
             style="fill:#cd9336;fill-opacity:1;fill-rule:evenodd;stroke:none"
             id="path150" />
        </g>
        <g
           id="g152"
           transform="translate(765.2056,420.9675)">
          <path
             d="m 0,0 c -9.065,-9.484 -8.385,-20.51 -2.215,-25.916 0.345,-0.3 1.179,16.902 1.369,18.814 0.153,-4.159 1.081,-18.735 1.74,-18.225 C 6.732,-20.702 7.685,-9.84 0,0"
             style="fill:#cd9336;fill-opacity:1;fill-rule:evenodd;stroke:none"
             id="path154" />
        </g>
        <g
           id="g156"
           transform="translate(776.9489,433.234)">
          <path
             d="m 0,0 c -8.372,-8.787 -7.758,-18.891 -2.081,-23.867 0.299,-0.304 1.088,15.551 1.242,17.322 0.176,-3.834 1.027,-17.303 1.594,-16.8 C 6.201,-19.071 7.031,-9.098 0,0"
             style="fill:#cd9336;fill-opacity:1;fill-rule:evenodd;stroke:none"
             id="path158" />
        </g>
        <g
           id="g160"
           transform="translate(671.2943,519.3923)">
          <path
             d="m 0,0 c -18.169,0 -32.443,-5.624 -32.443,-5.624 h -0.865 c 0,0 1.299,6.056 2.164,14.275 l 3.892,42.391 c 0.433,6.056 3.462,9.516 9.517,9.516 h 50.609 c 6.056,0 9.516,-3.46 9.516,-9.516 V 32.441 h 51.476 v 46.717 c 0,20.33 -9.084,29.414 -29.414,29.414 H -48.879 c -1.14,0 -2.232,-0.033 -3.29,-0.09 v 0.09 h -192.057 c -20.33,0 -26.819,-9.084 -26.819,-29.414 V 32.441 h 51.476 v 18.601 c 0,6.056 3.46,9.516 9.516,9.516 h 73.967 c 15.573,0 21.196,0.865 21.196,0.865 v -0.865 c 0,0 -8.218,-9.084 -18.6,-28.117 l -90.304,-164.581 c 0.566,-0.083 1.059,-0.156 1.449,-0.215 18.25,-2.698 35.533,-7.722 52.695,-13.502 l 85.998,157.748 -5.455,-63.367 19.896,-9.949 c 0,0 24.224,13.843 57.963,13.843 35.038,0 66.183,-18.169 66.183,-52.34 0,-2.977 -0.263,-5.891 -0.745,-8.731 0.726,0.255 1.51,0.52 2.296,0.782 21.851,12.076 38.333,27.258 50.322,41.249 C 93.179,-27.534 55.419,0 0,0"
             style="fill:#cd9336;fill-opacity:1;fill-rule:nonzero;stroke:none"
             id="path162" />
        </g>
      </g>
    </g>
  </g>
</svg>
